<svg xmlns="http://www.w3.org/2000/svg" width="48" height="48" fill="none" xmlns:v="https://vecta.io/nano"><path d="M11 46.494l8.104-18.908a1.5 1.5 0 0 0-.127-1.416 1.5 1.5 0 0 0-1.251-.676H11.8a1.5 1.5 0 0 1-.713-.178c-.219-.118-.406-.288-.543-.496a1.5 1.5 0 0 1-.123-1.42l9.18-21a1.5 1.5 0 0 1 1.374-.9h15.4a1.5 1.5 0 0 1 1.352.851 1.5 1.5 0 0 1-.182 1.587l-8.1 10.126a1.5 1.5 0 0 0-.18 1.586 1.5 1.5 0 0 0 1.352.85h6.764a1.5 1.5 0 0 1 1.387.927 1.5 1.5 0 0 1-.327 1.636L11 46.494z" stroke="#006bff" stroke-width="3" stroke-linejoin="round"/></svg>