<svg xmlns="http://www.w3.org/2000/svg" width="24" height="24" fill="none" stroke="#006bff" stroke-width="1.5" stroke-linejoin="round" xmlns:v="https://vecta.io/nano"><path d="M2.25 3.75a3 3 0 0 0 3 3 3 3 0 0 0 3-3 3 3 0 0 0-3-3 3 3 0 0 0-3 3h0z"/><g stroke-linecap="round"><path d="M9.75 14.25v-1.5a4.5 4.5 0 1 0-9 0v3h1.5l.75 7.5h4.5l.675-6.75m4.575-3.75h9a1.5 1.5 0 0 0 1.5-1.5v-9a1.5 1.5 0 0 0-1.5-1.5h-10.5"/><path d="M20.25 9.75h-7.5"/></g><path d="M10.626 18.375c0 .696.277 1.364.769 1.856s1.16.769 1.856.769 1.364-.277 1.856-.769.769-1.16.769-1.856-.277-1.364-.769-1.856-1.16-.769-1.856-.769-1.364.277-1.856.769-.769 1.16-.769 1.856h0z"/><path d="M16.5 23.25a4.27 4.27 0 0 0-3.25-1.501A4.27 4.27 0 0 0 10 23.25" stroke-linecap="round"/><path d="M17.376 18.375c0 .696.276 1.364.769 1.856s1.16.769 1.856.769 1.364-.277 1.856-.769.769-1.16.769-1.856-.277-1.364-.769-1.856-1.16-.769-1.856-.769-1.364.277-1.856.769-.769 1.16-.769 1.856h0z"/><path d="M23.25 23.25a4.27 4.27 0 0 0-6.5 0m2-13.5v-6m-3 6V6" stroke-linecap="round"/></svg>