<svg xmlns="http://www.w3.org/2000/svg" width="24" height="24" fill="none" stroke="#006bff" stroke-width="1.5" stroke-linejoin="round" xmlns:v="https://vecta.io/nano"><path d="M11.566 1.017c.04-.08.102-.148.179-.195S11.91.75 12 .75s.178.025.255.072.139.115.179.195l1.009 2.034c.035.07.086.13.149.176s.137.075.214.086l2.264.327a.48.48 0 0 1 .389.323.47.47 0 0 1-.121.487L14.7 6.044c-.055.053-.097.119-.121.192a.47.47 0 0 0-.017.227l.388 2.247c.015.088.004.178-.03.26s-.091.153-.164.205-.16.083-.249.089-.18-.013-.26-.054l-2.021-1.054a.48.48 0 0 0-.452 0L9.758 9.21c-.08.042-.17.061-.259.054s-.176-.037-.25-.089-.13-.122-.164-.205-.045-.172-.03-.26l.388-2.247c.013-.076.007-.154-.017-.227s-.066-.139-.121-.192L7.662 4.45a.47.47 0 0 1-.121-.487.48.48 0 0 1 .389-.323l2.264-.327c.077-.011.15-.041.214-.086s.114-.106.149-.176l1.009-2.034z"/><path d="M6.322 10.1l-.863-.45a.49.49 0 0 0-.453 0L2.991 10.7a.49.49 0 0 1-.51-.034c-.073-.052-.129-.123-.164-.205s-.044-.173-.029-.261l.387-2.246a.47.47 0 0 0-.137-.419L.894 5.944a.47.47 0 0 1-.12-.487.48.48 0 0 1 .389-.323l2.263-.327a.49.49 0 0 0 .214-.086.48.48 0 0 0 .15-.176L4.8 2.511a.48.48 0 0 1 .179-.195.49.49 0 0 1 .255-.072M17.678 10.1l.863-.451a.49.49 0 0 1 .453 0l2.015 1.051a.49.49 0 0 0 .51-.034c.073-.052.13-.123.164-.205s.044-.173.029-.261l-.387-2.246a.47.47 0 0 1 .137-.419l1.644-1.595a.47.47 0 0 0 .12-.487.48.48 0 0 0-.389-.323l-2.263-.327a.49.49 0 0 1-.214-.086.48.48 0 0 1-.15-.176l-1.01-2.03a.48.48 0 0 0-.179-.195.49.49 0 0 0-.255-.072m-1.737 21.001a6.68 6.68 0 0 0-10.06 0m1.476-10.003a6.86 6.86 0 0 0 7.643 1.536" stroke-linecap="round"/><path d="M7.875 15.336c0 1.094.435 2.143 1.208 2.917s1.823 1.208 2.917 1.208 2.143-.435 2.917-1.208 1.208-1.823 1.208-2.917-.435-2.143-1.208-2.917-1.823-1.208-2.917-1.208-2.143.435-2.917 1.208-1.208 1.823-1.208 2.917h0z"/></svg>