<svg xmlns="http://www.w3.org/2000/svg" width="24" height="24" fill="none" stroke="#006bff" stroke-width="1.5" stroke-linejoin="round" xmlns:v="https://vecta.io/nano"><path d="M4.875 15a3.75 3.75 0 0 0 1.098 2.652 3.75 3.75 0 0 0 2.652 1.098 3.75 3.75 0 0 0 2.652-1.098A3.75 3.75 0 0 0 12.375 15a3.75 3.75 0 0 0-1.098-2.652 3.75 3.75 0 0 0-2.652-1.098 3.75 3.75 0 0 0-2.652 1.098A3.75 3.75 0 0 0 4.875 15h0z"/><path d="M1.125 15a7.5 7.5 0 0 0 7.5 7.5 7.5 7.5 0 0 0 7.5-7.5 7.5 7.5 0 0 0-7.5-7.5 7.5 7.5 0 0 0-7.5 7.5h0z"/><path d="M8.625 15l9-9m-16.5 17.25l2.585-2.585m12.415 2.585l-2.585-2.585" stroke-linecap="round"/><path d="M19.693 8.175a1.5 1.5 0 0 1-1.273.425l-2.97-.424-.424-2.97a1.5 1.5 0 0 1 .424-1.273L18.632.75l.906 3.337 3.337.906-3.182 3.182z"/></svg>