<svg xmlns="http://www.w3.org/2000/svg" width="48" height="48" fill="none" stroke="#006bff" stroke-width="3" stroke-linejoin="round" xmlns:v="https://vecta.io/nano"><path d="M1.5 46.5h45" stroke-linecap="round"/><path d="M12 34.5H6A1.5 1.5 0 0 0 4.5 36v10.5h9V36a1.5 1.5 0 0 0-1.5-1.5zm15-15h-6a1.5 1.5 0 0 0-1.5 1.5v25.5h9V21a1.5 1.5 0 0 0-1.5-1.5zm15 6h-6a1.5 1.5 0 0 0-1.5 1.5v19.5h9V27a1.5 1.5 0 0 0-1.5-1.5z"/><g stroke-linecap="round"><path d="M46.5 10.5v-9h-9"/><path d="M46.5 1.5L36.4 11.6a4.5 4.5 0 0 1-4.474 1.128L20.508 9.676a4.5 4.5 0 0 0-4.344 1.166L4.5 22.506"/></g></svg>