<svg fill="none" height="48" viewBox="0 0 48 48" width="48" xmlns="http://www.w3.org/2000/svg" xmlns:xlink="http://www.w3.org/1999/xlink"><clipPath id="a"><path d="m0 0h48v48h-48z"/></clipPath><g clip-path="url(#a)" stroke="#006bff" stroke-linecap="round" stroke-linejoin="round" stroke-width="3"><path d="m29.7286 17.6102c.5499.4726 1.228.771 1.948.8573s1.4494-.0435 2.0955-.3728c.646-.3293 1.1796-.8432 1.5328-1.4765.3533-.6333.5103-1.3573.451-2.08s-.3321-1.4115-.7838-1.9788-1.0618-.9875-1.7529-1.2071-1.4319-.2288-2.1282-.0264-1.3167.6073-1.7824 1.1632c-.6175.7373-.9198 1.6882-.8412 2.6467.0786.9586.5317 1.8476 1.2612 2.4744z"/><path d="m36.5908 23.5199c-.3586.1767-.6577.4544-.8604.7989-.2096.3302-.3165.7152-.3072 1.1062v.1434c.0276.3177-.0072.6378-.1024.9422-.0996.3055-.2599.5876-.4712.8296-.2058.2472-.4603.4494-.7477.5941-.2837.1454-.5936.2324-.9115.2561-.3219.029-.6463-.0094-.9525-.1127-.3039-.0983-.5857-.2548-.8297-.4609-.2441-.2063-.4429-.4608-.5838-.7477-.1486-.283-.2392-.593-.2663-.9115v-.1025c-.0283-.4024-.1824-.7857-.4404-1.0959-.2535-.307-.591-.5334-.9711-.6517-.3802-.1182-.7866-.1231-1.1695-.014-.3739.1122-.7079.329-.9628.6248l-.1331.1536c-.4225.4926-1.0226.7982-1.6695.8501-.6436.0509-1.2812-.1556-1.7728-.5742-.4915-.4186-.7969-1.0151-.8492-1.6586-.0525-.6466.1538-1.2876.5736-1.7822l.0717-.0819c.2815-.3306.447-.7443.4711-1.1778.0388-.4019-.047-.806-.2458-1.1574-.1777-.3638-.4593-.6667-.8091-.8706-.3462-.2039-.7466-.2968-1.1472-.2663h-.1024c-.3184.0245-.6386-.0137-.9423-.1127-.3062-.0998-.5911-.2562-.8398-.4609-.2367-.2133-.4343-.4663-.5838-.7476-.2221-.4312-.3105-.9188-.2539-1.4005.0565-.4816.2555-.9355.5714-1.3035.2089-.2413.4629-.4396.7477-.5838.2837-.1454.5936-.2324.9115-.256h.0717c.4017-.039.783-.1958 1.0959-.4507.3172-.2672.5457-.6243.6555-1.0242.1128-.3741.1128-.7731 0-1.1471-.1105-.3776-.3274-.71543-.6247-.97304l-.1025-.05121c-.4926-.42245-.7982-1.02258-.8501-1.66947-.0509-.64364.1556-1.28121.5742-1.77277.4186-.49157 1.0151-.79699 1.6586-.84923.6466-.05251 1.2876.15378 1.7822.57356l.0819.07169c.315.25006.6967.40186 1.0974.43647.4007.0346.8027-.04952 1.1559-.24187.3645-.17185.6681-.45047.8706-.79889.2011-.35102.2937-.75374.2663-1.15736v-.10242c-.024-.31843.0142-.63849.1126-.94229.0878-.30002.2301-.58127.42-.82961.208-.24499.462-.44681.7476-.59405.2874-.1454.6007-.23243.9218-.25605.3186-.02914.6396.00925.9423.11266.3163.09078.611.24466.8662.45237.2553.20771.4658.46494.6189.75621.1454.2837.2325.59365.2561.91155v.10242c.039.40173.1957.78299.4507 1.09592.2631.32175.6218.55135 1.0242.6555l.0717.06145c.3733.11786.7738.11786 1.1471 0 .3786-.10265.7176-.31676.973-.61453l.1331-.16387c.4103-.46484.981-.75751 1.5978-.81938.3186-.02575.6391.01166.9432.11009.304.09842.5857.25593.8287.46347.4927.42246.7983 1.02259.8501 1.66948.0258.31856-.0116.63908-.1101.94314-.0984.30407-.2559.58571-.4634.82876l-.0717.08193c-.2461.2918-.4057.64654-.4609 1.02422-.0503.3899.0175.78589.1946 1.13685.1729.3841.4634.7034.8296.9116.3462.2039.7465.2968 1.1471.2663h.1127c.3184-.024.6385.0142.9423.1127.303.1001.5844.2565.8296.4609.2426.2102.444.4638.594.7476.1454.2874.2325.6007.2561.9218.0297.3186-.0087.6398-.1127.9423-.0958.308-.2525.5936-.4609.8399-.2089.2413-.4629.4396-.7477.5838-.288.1453-.6006.2357-.9218.2663h-.1024c-.3981.0409-.7756.1976-1.0857.4506-.3217.2631-.5513.6219-.6555 1.0242l-.0614.0717c-.1113.3778-.1113.7796 0 1.1574.1123.3739.329.7079.6248.9628l.1638.1434c.4807.4228.7756 1.0178.8213 1.6563.0456.6386-.1618 1.2694-.5774 1.7563-.4157.487-1.0061.7908-1.6439.846s-1.2717-.1427-1.7648-.551l-.0819-.0717c-.3043-.2664-.6807-.4368-1.0817-.4896-.401-.0529-.8087.0141-1.1716.1926z"/><path d="m18.0115 46.5546h12.0755l-1.5056-9.0234h-9.0234z"/><path d="m34.6038 46.5546h-21.0682"/><path d="m14.6083 10.451h-8.24223c-.84186-.0036-1.65399.311-2.27376.8808-.29442.2718-.52994.601-.69202.9675-.16208.3664-.24725.7622-.25027 1.1629v21.0579c.00179.4009.08642.797.24857 1.1636.16216.3666.39833.6958.69372.9668.61977.5697 1.4319.8843 2.27376.8808h35.39703c.8418.0035 1.654-.3111 2.2737-.8808.2954-.271.5316-.6002.6937-.9668.1622-.3666.2468-.7627.2486-1.1636v-3.001"/><path d="m44.9791 32.5433h-41.81882"/><path d="m3.16028 31.5191v3.001c.00179.4008.08641.797.24857 1.1636.16215.3666.39833.6958.69371.9668.61977.5697 1.4319.8843 2.27376.8808h35.38678c.8418.0035 1.654-.3111 2.2737-.8808.2954-.271.5316-.6002.6938-.9668.1621-.3666.2467-.7628.2485-1.1636v-5.4154"/></g></svg>