<svg fill="none" height="49" viewBox="0 0 53 49" width="53" xmlns="http://www.w3.org/2000/svg"><g stroke="#006bff" stroke-width="3"><path d="m23.1194 25.5835h13.7277" stroke-linecap="round" stroke-linejoin="round"/><path d="m42.2356 5.33293c0 .43768.0862.87108.2537 1.27545s.413.77179.7225 1.08128.6769.55499 1.0813.72249c.4043.16749.8377.2537 1.2754.2537s.8711-.08621 1.2755-.2537c.4043-.1675.7718-.413 1.0813-.72249.3094-.30949.5549-.67691.7224-1.08128s.2537-.83777.2537-1.27545c0-.43769-.0862-.87109-.2537-1.27546s-.413-.77179-.7224-1.08128c-.3095-.30949-.677-.55499-1.0813-.72249-.4044-.16749-.8378-.2537-1.2755-.2537s-.8711.08621-1.2754.2537c-.4044.1675-.7718.413-1.0813.72249s-.555.67691-.7225 1.08128-.2537.83777-.2537 1.27546z" stroke-linecap="round" stroke-linejoin="round"/><path d="m51.1235 14.2208c-.3301-1.2365-1.0472-2.3349-2.0464-3.1346-.9993-.7996-2.2282-1.25841-3.507-1.30934-1.279.05062-2.5083.50934-3.5078 1.30894-.9995.7997-1.7169 1.8982-2.047 3.135z" stroke-linecap="round" stroke-linejoin="round"/><path d="m42.2356 21.8766c0 .4377.0862.8711.2537 1.2755s.413.7718.7225 1.0813.6769.555 1.0813.7224c.4043.1675.8377.2538 1.2754.2538s.8711-.0863 1.2755-.2538c.4043-.1674.7718-.4129 1.0813-.7224.3094-.3095.5549-.6769.7224-1.0813s.2537-.8378.2537-1.2755-.0862-.8711-.2537-1.2754c-.1675-.4044-.413-.7718-.7224-1.0813-.3095-.3095-.677-.555-1.0813-.7225-.4044-.1675-.8378-.2537-1.2755-.2537s-.8711.0862-1.2754.2537c-.4044.1675-.7718.413-1.0813.7225s-.555.6769-.7225 1.0813c-.1675.4043-.2537.8377-.2537 1.2754z" stroke-linecap="round" stroke-linejoin="round"/><path d="m51.1235 30.7645c-.3301-1.2365-1.0472-2.3349-2.0464-3.1346-.9993-.7996-2.2282-1.2584-3.507-1.3093-1.279.0506-2.5083.5093-3.5078 1.3089-.9995.7997-1.7169 1.8982-2.047 3.135z" stroke-linecap="round" stroke-linejoin="round"/><path d="m42.3345 38.1122c0 .4377.0862.8711.2537 1.2755.1675.4043.413.7718.7225 1.0813.3095.3094.6769.555 1.0812.7224.4044.1675.8378.2537 1.2755.2537s.8711-.0862 1.2755-.2537c.4043-.1674.7717-.413 1.0812-.7224.3095-.3095.555-.677.7225-1.0813.1675-.4044.2537-.8378.2537-1.2755s-.0862-.8711-.2537-1.2754c-.1675-.4044-.413-.7718-.7225-1.0813s-.6769-.555-1.0812-.7225c-.4044-.1675-.8378-.2537-1.2755-.2537s-.8711.0862-1.2755.2537c-.4043.1675-.7717.413-1.0812.7225s-.555.6769-.7225 1.0813c-.1675.4043-.2537.8377-.2537 1.2754z" stroke-linecap="round" stroke-linejoin="round"/><path d="m51.2225 47.0001c-.3301-1.2368-1.0475-2.3354-2.047-3.135s-2.2288-1.2583-3.5078-1.3089c-1.2791.0506-2.5083.5093-3.5079 1.3089-.9995.7996-1.7168 1.8982-2.047 3.135z" stroke-linecap="round" stroke-linejoin="round"/><path d="m6.22388 14.6716c1.51453 1.5155 3.47089 2.5496 5.60882 2.9647 2.1378.415 4.3559.1913 6.3589-.6413" stroke-linecap="round" stroke-linejoin="round"/><path d="m5.16809 18.0155c0 .8552.16843 1.7019.49569 2.492.32725.7901.80691 1.5079 1.41159 2.1126s1.32254 1.0843 2.1126 1.4116c.79005.3272 1.63683.4957 2.49193.4957.8552 0 1.702-.1685 2.492-.4957.7901-.3273 1.5079-.8069 2.1126-1.4116s1.0844-1.3225 1.4116-2.1126c.3273-.7901.4957-1.6368.4957-2.492 0-.8551-.1684-1.7019-.4957-2.492-.3272-.79-.8069-1.5079-1.4116-2.1126-.6047-.6046-1.3225-1.0843-2.1126-1.4116-.79-.3272-1.6368-.4956-2.492-.4956-.8551 0-1.70188.1684-2.49193.4956-.79006.3273-1.50792.807-2.1126 1.4116-.60468.6047-1.08434 1.3226-1.41159 2.1126-.32726.7901-.49569 1.6369-.49569 2.492z" stroke-linecap="round" stroke-linejoin="round"/><path d="m2 37.5511c0-2.6139 1.01983-5.1208 2.83514-6.9691 1.81532-1.8483 4.27741-2.8867 6.84466-2.8867 2.5672 0 5.0293 1.0384 6.8446 2.8867s2.8352 4.3552 2.8352 6.9691z" stroke-linecap="round" stroke-linejoin="round"/><path d="m38.9591 42.479h-9.5038v-33.79124h9.5038" stroke-dasharray="5 5"/></g><path d="m38.8617 25.4575-3.2314 2.4876v-4.9751z" fill="#006bff"/></svg>